<svg width="16px" height="16px" viewBox="0 0 16 16" version="1.1" xmlns="http://www.w3.org/2000/svg" xmlns:xlink="http://www.w3.org/1999/xlink">
  <g fill-rule="evenodd">
    <path d="M14,10 L14,2 L2,2 L2,14 L10,14 L10,13 C10,12.4472481 10.4378814,12 11,12 L4,12 L4,4 L12,4 L12,11.0029291 C12,10.4490268 12.4426603,10 13,10 L14,10 L14,10 Z"></path>
    <rect fill-opacity="0.3" x="4" y="4" width="8" height="8"></rect>
    <polygon points="14 13 14 11 13 11 13 13 11 13 11 14 13 14 13 16 14 16 14 14 16 14 16 13"></polygon>
  </g>
</svg>
