<svg width="16px" height="16px" viewBox="0 0 16 16" version="1.1" xmlns="http://www.w3.org/2000/svg" xmlns:xlink="http://www.w3.org/1999/xlink">
    <g fill-rule="evenodd">
      <path d="M1,1 L15,1 L15,15 L1,15 L1,1 Z M2,2 L14,2 L14,14 L2,14 L2,2 Z" fill-opacity="0.3"></path>
      <path d="M7.49916726,5 L6.50083274,5 C5.67854548,5 5,5.6719457 5,6.50083274 L5,7.49916726 C5,8.14723036 5.41737039,8.7060101 6,8.91370291 L6,15 L8,15 L8,8.91347619 C8.42368661,8.76226444 8.76215642,8.42512531 8.91370291,8 L15,8 L15,6 L8.91347619,6 C8.70655199,5.42021033 8.15145502,5 7.49916726,5 Z M6,6.50083274 L6,7.49916726 C6,7.77212694 6.22718299,8 6.50083274,8 L7.49916726,8 C7.77212694,8 8,7.77281701 8,7.49916726 L8,6.50083274 C8,6.22787306 7.77281701,6 7.49916726,6 L6.50083274,6 C6.22787306,6 6,6.22718299 6,6.50083274 Z"></path>
      <rect fill-opacity="0.3" x="8" y="8" width="6" height="6"></rect>
    </g>
</svg>
