<svg width="16px" height="16px" viewBox="0 0 16 16" version="1.1" xmlns="http://www.w3.org/2000/svg" xmlns:xlink="http://www.w3.org/1999/xlink">
  <g fill-rule="evenodd">
    <path d="M1,4.99715203 C1,3.34187067 2.34915073,2 4.00393414,2 L7.07910636,2 L9,4 L12,4 C13.6568542,4 15,5.3486445 15,7.00032973 L15,10.9996703 C15,12.6567066 13.6576211,14 11.9966488,14 L4.00335124,14 C2.34464615,14 1,12.6583772 1,11.002848 L1,4.99715203 Z M3,6 L12.0046024,6 C12.5543453,6 13,6.45097518 13,6.99077797 L13,11.009222 C13,11.5564136 12.5443356,12 12.0046024,12 L3.99539757,12 C3.44565467,12 3,11.5490248 3,11.009222 L3,6 Z"></path>
  </g>
</svg>
