<svg xmlns="http://www.w3.org/2000/svg" width="32" height="32" viewBox="192.5 256.5 32 32"><path fill="#FFF" d="M207.459 281.395c-5.41 0-9.813-4.401-9.813-9.813s4.401-9.813 9.813-9.813 9.813 4.401 9.813 9.813-4.403 9.813-9.813 9.813z"/><path d="M207.459 262.271c5.135 0 9.313 4.177 9.313 9.312s-4.178 9.312-9.313 9.312-9.313-4.177-9.313-9.312 4.178-9.312 9.313-9.312m0-1c-5.695 0-10.313 4.617-10.313 10.312s4.617 10.312 10.313 10.312c5.693 0 10.313-4.617 10.313-10.312s-4.62-10.312-10.313-10.312z"/></svg>