<?xml version="1.0" encoding="utf-8"?>
<!-- Generator: Adobe Illustrator 16.0.0, SVG Export Plug-In . SVG Version: 6.00 Build 0)  -->
<!DOCTYPE svg PUBLIC "-//W3C//DTD SVG 1.1//EN" "http://www.w3.org/Graphics/SVG/1.1/DTD/svg11.dtd">
<svg version="1.1" id="Layer_1" xmlns="http://www.w3.org/2000/svg" xmlns:xlink="http://www.w3.org/1999/xlink" x="0px" y="0px"
	 width="32px" height="32px" viewBox="192.5 256.5 32 32" enable-background="new 192.5 256.5 32 32" xml:space="preserve">
<g>
	<path fill="#FFFFFF" d="M207.459,281.395c-5.41,0-9.813-4.401-9.813-9.813s4.401-9.813,9.813-9.813s9.813,4.401,9.813,9.813
		S212.869,281.395,207.459,281.395z"/>
	<path d="M207.459,262.271c5.135,0,9.313,4.177,9.313,9.312s-4.178,9.312-9.313,9.312s-9.313-4.177-9.313-9.312
		S202.324,262.271,207.459,262.271 M207.459,261.271c-5.695,0-10.313,4.617-10.313,10.312s4.617,10.312,10.313,10.312
		c5.693,0,10.313-4.617,10.313-10.312S213.152,261.271,207.459,261.271L207.459,261.271z"/>
</g>
</svg>
