<svg width="16px" height="16px" viewBox="0 0 16 16" version="1.1" xmlns="http://www.w3.org/2000/svg" xmlns:xlink="http://www.w3.org/1999/xlink">
  <g fill-rule="evenodd">
    <path d="M3,4 L2.99201702,4 C1.90017617,4 1,4.8918564 1,5.99201702 L1,13.007983 C1,14.0998238 1.8918564,15 2.99201702,15 L10.007983,15 C11.0998238,15 12,14.1081436 12,13.007983 L12,13 L3,13 L3,4 Z" fill-opacity="0.3"></path>
    <path d="M4,2.99201702 C4,1.8918564 4.90017617,1 5.99201702,1 L13.007983,1 C14.1081436,1 15,1.90017617 15,2.99201702 L15,10.007983 C15,11.1081436 14.0998238,12 13.007983,12 L5.99201702,12 C4.8918564,12 4,11.0998238 4,10.007983 L4,2.99201702 Z M6,3 L13,3 L13,10 L6,10 L6,3 Z"></path>
  </g>
</svg>
