<svg width="16" height="16" viewBox="0 0 16 16" xmlns="http://www.w3.org/2000/svg"><defs><clipPath id="addpaths-clippath"><path d="M0 0v16h10v-4h2v-2h4V0z"/></clipPath></defs><g clip-path="url(#addpaths-clippath)"><path fill-opacity=".3" d="M4 4h8v8H4z"/><path d="M14 4.913v6.173c.583.208 1 .767 1 1.415v1c0 .83-.68 1.5-1.5 1.5h-1c-.65 0-1.207-.42-1.413-1H4.914c-.208.586-.767 1-1.415 1h-1c-.83 0-1.5-.68-1.5-1.5v-1c0-.65.42-1.204 1-1.41V4.914c-.586-.208-1-.767-1-1.415v-1C1 1.67 1.68 1 2.5 1h1c.65 0 1.207.42 1.413 1h6.173c.208-.583.767-1 1.415-1h1c.83 0 1.5.68 1.5 1.5v1c0 .65-.42 1.207-1 1.413zM12 2.5v1c0 .272.227.5.5.5h1c.272 0 .5-.227.5-.5v-1c0-.272-.227-.5-.5-.5h-1c-.272 0-.5.227-.5.5zm-10 0v1c0 .272.227.5.5.5h1c.272 0 .5-.227.5-.5v-1c0-.272-.227-.5-.5-.5h-1c-.272 0-.5.227-.5.5zm10 10v1c0 .272.227.5.5.5h1c.272 0 .5-.227.5-.5v-1c0-.272-.227-.5-.5-.5h-1c-.272 0-.5.227-.5.5zm-10 0v1c0 .272.227.5.5.5h1c.272 0 .5-.227.5-.5v-1c0-.272-.227-.5-.5-.5h-1c-.272 0-.5.227-.5.5zM11.087 4H4.914c-.152.425-.49.762-.914.913v6.173c.425.152.762.49.913.914h6.173c.152-.425.49-.762.914-.913V4.914c-.425-.152-.762-.49-.913-.914z"/></g><path d="M13.75 12.75v-2h-1v2h-2v1h2v2h1v-2h2v-1"/></svg>
