<svg xmlns="http://www.w3.org/2000/svg" width="24" height="24" viewBox="0 0 100 100"><path d="M1.21 62.66V12.79a6.31 6.31 0 0 1 6.31-6.31H68A15.09 15.09 0 0 0 66.49 13a15.23 15.23 0 0 0 .15 2H9.78v45.39h56.47l.91 8.61H50l18 22.26a3.08 3.08 0 0 1-.47 4.33l-.26.21a3.08 3.08 0 0 1-4.33-.47L47.43 76.08v17.25a3.08 3.08 0 0 1-3.08 3.08H44a3.08 3.08 0 0 1-3.08-3.08V76.08L25.44 95.33a3.08 3.08 0 0 1-4.33.47l-.26-.21a3.08 3.08 0 0 1-.47-4.33L38.31 69H7.52a6.31 6.31 0 0 1-6.31-6.34zM91.22 13a9.53 9.53 0 1 0-9.53 9.53A9.53 9.53 0 0 0 91.22 13zm-3.45 12a.39.39 0 0 0-.31.15l-4.94 6.16a1 1 0 0 1-1.53 0l-4.94-6.17a.38.38 0 0 0-.3-.14l-4.19.08-25.3 1.63a3.3 3.3 0 0 0-3.07 3.67 3.44 3.44 0 0 0 3.25 2.94l22.42 1.44a.43.43 0 0 1 .4.38l4.42 41.39 1.84 16.93a3.13 3.13 0 0 0 3.11 2.77h6.27a3.13 3.13 0 0 0 3.1-2.69l3.94-36.21a6.84 6.84 0 0 0 4.45-5.65L98.74 34a8.06 8.06 0 0 0-8-9z"/></svg>
