<svg width="48" height="48" viewBox="0 0 48 48" xmlns="http://www.w3.org/2000/svg" xmlns:xlink="http://www.w3.org/1999/xlink"><defs><circle id="shapeshifterId1" cx="24" cy="24" r="22"/></defs><g fill="none" fill-rule="evenodd"><mask id="shapeshifterId2" fill="#fff"><use xlink:href="#shapeshifterId1"/></mask><use fill="#2962FF" xlink:href="#shapeshifterId1"/><path fill="#000" fill-opacity=".2" d="M0 0h48v24H0z" mask="url(#shapeshifterId2)"/><g mask="url(#shapeshifterId2)"><path d="M8 8h32v32H8z"/><path fill="#FFF" d="M34.667 18.31V24c0 .736-.6 1.333-1.344 1.333h-7.99v4.357c.797.46 1.334 1.323 1.334 2.31 0 1.473-1.194 2.667-2.667 2.667-1.473 0-2.667-1.194-2.667-2.667 0-.987.537-1.85 1.334-2.31v-4.357H16v4.357c.797.46 1.333 1.323 1.333 2.31 0 1.473-1.194 2.667-2.666 2.667C13.194 34.667 12 33.473 12 32c0-.987.536-1.85 1.333-2.31V18.31C12.536 17.85 12 16.987 12 16c0-1.473 1.194-2.667 2.667-2.667 1.472 0 2.666 1.194 2.666 2.667 0 .987-.536 1.85-1.333 2.31v4.357h6.667V18.31c-.797-.46-1.334-1.323-1.334-2.31 0-1.473 1.194-2.667 2.667-2.667 1.473 0 2.667 1.194 2.667 2.667 0 .987-.537 1.85-1.334 2.31v4.357H32V18.31c-.797-.46-1.333-1.323-1.333-2.31 0-1.473 1.194-2.667 2.666-2.667C34.806 13.333 36 14.527 36 16c0 .987-.536 1.85-1.333 2.31z"/></g></g></svg>
