<svg width="16px" height="16px" viewBox="0 0 16 16" version="1.1" xmlns="http://www.w3.org/2000/svg" xmlns:xlink="http://www.w3.org/1999/xlink">
  <g fill-rule="evenodd">
      <path d="M1,4.0085302 C1,2.8992496 1.89706013,2 3.00585866,2 L12.9941413,2 C14.1019465,2 15,2.90195036 15,4.0085302 L15,11.9914698 C15,13.1007504 14.1029399,14 12.9941413,14 L3.00585866,14 C1.89805351,14 1,13.0980496 1,11.9914698 L1,4.0085302 L1,4.0085302 L1,4.0085302 Z M7.03225806,9.70967742 L10,6 L14,11 L7,11 L2,11 L5,7 L7.03225806,9.70967742 L7.03225806,9.70967742 L7.03225806,9.70967742 L7.03225806,9.70967742 Z"></path>
      <polygon fill-opacity="0.3" points="5 7 2 11 6 11 7.03225806 9.70967742"></polygon>
  </g>
</svg>
